<svg width="27" height="27" viewBox="0 0 27 27" fill="none" xmlns="http://www.w3.org/2000/svg">
<path fill-rule="evenodd" clip-rule="evenodd" d="M13.7836 2.62158C10.8474 2.62158 10.4798 2.63455 9.32629 2.68645C8.17602 2.73942 7.39008 2.92212 6.70251 3.18915C5.98087 3.46033 5.32711 3.88572 4.78683 4.43564C4.23695 4.97593 3.81156 5.62969 3.54035 6.35131C3.27332 7.03888 3.09062 7.82483 3.03764 8.9751C2.98467 10.1286 2.97278 10.4962 2.97278 13.4324C2.97278 16.3686 2.98467 16.7362 3.03764 17.8897C3.09062 19.04 3.27332 19.8259 3.54035 20.5135C3.81159 21.2351 4.23697 21.8888 4.78683 22.4292C5.32715 22.979 5.9809 23.4044 6.70251 23.6756C7.39008 23.9427 8.17602 24.1254 9.32629 24.1783C10.4798 24.2302 10.8474 24.2432 13.7836 24.2432C16.7198 24.2432 17.0874 24.2302 18.2409 24.1783C19.3912 24.1254 20.1771 23.9427 20.8647 23.6756C21.5863 23.4044 22.2401 22.979 22.7803 22.4292C23.3302 21.8889 23.7556 21.2351 24.0268 20.5135C24.2939 19.8259 24.4766 19.04 24.5295 17.8897C24.5814 16.7362 24.5944 16.3686 24.5944 13.4324C24.5944 10.4962 24.5814 10.1286 24.5295 8.9751C24.4766 7.82483 24.2939 7.03888 24.0268 6.35131C23.7556 5.62969 23.3302 4.97593 22.7803 4.43564C22.2401 3.88572 21.5863 3.46033 20.8647 3.18915C20.1771 2.92212 19.3912 2.73942 18.2409 2.68645C17.0874 2.63455 16.7198 2.62158 13.7836 2.62158ZM13.7836 4.56969C16.6701 4.56969 17.0117 4.5805 18.1512 4.63239C19.2063 4.68104 19.7782 4.85618 20.1598 5.00428C20.6636 5.20104 21.0247 5.43564 21.403 5.81293C21.7814 6.19131 22.0149 6.55239 22.2117 7.05618C22.3587 7.4378 22.536 8.00969 22.5836 9.06374C22.6355 10.2043 22.6463 10.5448 22.6463 13.4324C22.6463 16.3189 22.6355 16.6605 22.5836 17.8C22.5349 18.8551 22.3587 19.427 22.2117 19.8086C22.0384 20.2782 21.7621 20.703 21.403 21.0519C21.0247 21.4302 20.6636 21.6637 20.1598 21.8605C19.7782 22.0075 19.2063 22.1848 18.1522 22.2324C17.0128 22.2843 16.6712 22.2951 13.7836 22.2951C10.8971 22.2951 10.5544 22.2843 9.41602 22.2324C8.36089 22.1837 7.789 22.0075 7.40737 21.8605C6.93774 21.6872 6.51291 21.4109 6.16413 21.0519C5.80506 20.7031 5.52873 20.2782 5.35548 19.8086C5.20737 19.427 5.03116 18.8551 4.98359 17.801C4.9317 16.6605 4.92089 16.32 4.92089 13.4324C4.92089 10.5459 4.9317 10.2043 4.98359 9.06483C5.03224 8.00969 5.20737 7.4378 5.35548 7.05618C5.55224 6.55239 5.78683 6.19131 6.16413 5.81293C6.54251 5.43456 6.90359 5.20104 7.40737 5.00428C7.789 4.85618 8.36089 4.67996 9.41494 4.63239C10.5555 4.5805 10.896 4.56969 13.7836 4.56969ZM13.7836 17.0356C12.828 17.0356 11.9115 16.656 11.2357 15.9803C10.56 15.3045 10.1803 14.388 10.1803 13.4324C10.1803 12.4768 10.56 11.5603 11.2357 10.8845C11.9115 10.2088 12.828 9.82915 13.7836 9.82915C14.7392 9.82915 15.6557 10.2088 16.3315 10.8845C17.0072 11.5603 17.3868 12.4768 17.3868 13.4324C17.3868 14.388 17.0072 15.3045 16.3315 15.9803C15.6557 16.656 14.7392 17.0356 13.7836 17.0356ZM13.7836 7.88104C13.0546 7.88104 12.3327 8.02463 11.6592 8.30361C10.9857 8.58259 10.3737 8.9915 9.85819 9.507C9.3427 10.0225 8.93379 10.6345 8.65481 11.308C8.37583 11.9815 8.23224 12.7034 8.23224 13.4324C8.23224 14.1614 8.37583 14.8833 8.65481 15.5568C8.93379 16.2303 9.3427 16.8423 9.85819 17.3578C10.3737 17.8733 10.9857 18.2822 11.6592 18.5612C12.3327 18.8402 13.0546 18.9837 13.7836 18.9837C15.2559 18.9837 16.6679 18.3989 17.709 17.3578C18.7501 16.3167 19.3349 14.9047 19.3349 13.4324C19.3349 11.9601 18.7501 10.5481 17.709 9.507C16.6679 8.46592 15.2559 7.88104 13.7836 7.88104ZM20.8517 7.66158C20.8517 7.83195 20.8181 8.00064 20.7529 8.15804C20.6878 8.31543 20.5922 8.45845 20.4717 8.57891C20.3513 8.69938 20.2083 8.79493 20.0509 8.86013C19.8935 8.92532 19.7248 8.95888 19.5544 8.95888C19.384 8.95888 19.2153 8.92532 19.0579 8.86013C18.9006 8.79493 18.7575 8.69938 18.6371 8.57891C18.5166 8.45845 18.4211 8.31543 18.3559 8.15804C18.2907 8.00064 18.2571 7.83195 18.2571 7.66158C18.2571 7.31752 18.3938 6.98755 18.6371 6.74425C18.8804 6.50096 19.2103 6.36428 19.5544 6.36428C19.8985 6.36428 20.2284 6.50096 20.4717 6.74425C20.715 6.98755 20.8517 7.31752 20.8517 7.66158Z" fill="white"/>
</svg>
