<svg width="28" height="29" viewBox="0 0 28 29" fill="none" xmlns="http://www.w3.org/2000/svg">
<path d="M22.65 4.60498H5.67043C4.85842 4.60498 4.19946 5.24844 4.19946 6.04079V23.0937C4.19946 23.8872 4.85842 24.5315 5.67043 24.5315H22.65C23.4626 24.5315 24.1259 23.8872 24.1259 23.0937V6.04079C24.1259 5.24844 23.4626 4.60498 22.65 4.60498ZM10.1093 21.5851H7.15246V12.076H10.1093V21.5851ZM8.63089 10.7758C8.40583 10.7758 8.18297 10.7315 7.97505 10.6453C7.76713 10.5592 7.57823 10.4329 7.41914 10.2737C7.26005 10.1145 7.13388 9.92549 7.04785 9.71752C6.96183 9.50954 6.91762 9.28666 6.91777 9.06159C6.91777 8.60728 7.09824 8.17158 7.41949 7.85033C7.74074 7.52908 8.17644 7.34861 8.63075 7.34861C9.08507 7.34861 9.52077 7.52908 9.84202 7.85033C10.1633 8.17158 10.3437 8.60728 10.3437 9.06159C10.3437 9.516 10.1633 9.95181 9.84214 10.2732C9.52096 10.5947 9.08529 10.7755 8.63089 10.7758ZM21.1785 21.5851H18.2263V16.9611C18.2263 15.8579 18.2047 14.4395 16.69 14.4395C15.1518 14.4395 14.9174 15.6409 14.9174 16.8811V21.5854H11.963V12.076H14.7984V13.3746H14.8388C15.2335 12.6273 16.1977 11.8388 17.6357 11.8388C20.6264 11.8388 21.1788 13.8077 21.1788 16.3691V21.5851H21.1785Z" fill="white"/>
</svg>
