<svg width="175" height="46" viewBox="0 0 175 46" fill="none" xmlns="http://www.w3.org/2000/svg">
<g clip-path="url(#clip0_30_1270)">
<path d="M55.2468 40.8918L55.2746 36.0725L55.2468 31.7668C55.2468 31.7196 55.2662 31.7085 55.3051 31.7085H58.5247C60.3716 31.7085 61.5974 32.5219 61.5974 33.8794C61.5974 35.0676 61.0094 35.7005 59.8225 35.9865C61.2729 36.3363 61.8608 37.1358 61.8941 38.2656C61.8941 40.1812 60.4021 40.9529 58.5164 40.9529H55.3051C55.2662 40.9529 55.2468 40.939 55.2468 40.8946V40.8918ZM58.497 35.7477C59.9667 35.7477 60.9041 35.3119 60.9041 34.0238C60.9041 32.8217 59.9556 32.2415 58.497 32.2415H55.9457L55.9179 35.7477H58.497ZM58.497 40.4032C60.1137 40.4032 61.1952 39.8147 61.1952 38.2768C61.1952 36.8498 59.9085 36.2835 58.497 36.2835H55.9179L55.9457 40.4032H58.497Z" fill="white"/>
<path d="M62.4764 38.3573V37.0637L62.457 34.2126C62.457 34.1654 62.4848 34.1543 62.5236 34.1543H63.0699C63.1087 34.1543 63.1281 34.1682 63.1281 34.2126L63.1143 37.0637V38.299C63.1143 39.9564 63.7937 40.5782 64.8281 40.5782C65.8625 40.5782 66.5308 39.8203 66.9717 38.5766V37.0637L66.9579 34.2126C66.9579 34.1654 66.9856 34.1543 67.0161 34.1543H67.5763C67.6096 34.1543 67.6345 34.1682 67.6345 34.2126L67.6068 37.1247L67.6262 40.8947C67.6262 40.9335 67.6068 40.953 67.568 40.953H67.0272C66.9939 40.953 66.969 40.9391 66.969 40.8947L67.0022 39.5344C66.614 40.3061 65.8625 41.1112 64.6866 41.1112C63.3139 41.1112 62.4709 40.234 62.4709 38.3573H62.4764Z" fill="white"/>
<path d="M68.1226 38.6071C68.1226 38.5683 68.142 38.5405 68.1808 38.5405H68.6883C68.7216 38.5405 68.7465 38.5683 68.7465 38.6071C68.7659 39.973 69.5369 40.6087 70.9484 40.6087C72.1104 40.6087 72.9478 40.0813 72.9478 39.1291C72.9478 36.9054 68.264 38.5072 68.264 35.8671C68.264 34.6512 69.2984 34.0127 70.7515 34.0127C72.2046 34.0127 73.3444 34.654 73.3832 36.0864C73.3832 36.1253 73.3638 36.1531 73.325 36.1531H72.8314C72.7926 36.1531 72.7731 36.1253 72.7731 36.0948C72.7343 34.9538 71.8552 34.4902 70.7487 34.4902C69.6422 34.4902 68.9018 34.9399 68.9018 35.8505C68.9018 37.8854 73.5857 36.2808 73.5857 39.1068C73.5857 40.3533 72.4237 41.0945 70.9345 41.0945C69.2069 41.0945 68.1503 40.295 68.1253 38.6127L68.1226 38.6071Z" fill="white"/>
<path d="M74.1181 40.8918L74.132 37.3522L74.1181 34.2097C74.1181 34.1625 74.1376 34.1514 74.1764 34.1514H74.731C74.7643 34.1514 74.7892 34.1653 74.7892 34.2097L74.7698 37.3522L74.7892 40.8918C74.7892 40.939 74.7615 40.9501 74.731 40.9501H74.1764C74.1376 40.9501 74.1181 40.9362 74.1181 40.8918ZM74.1237 33.3186V32.5329C74.1237 32.4941 74.1514 32.4663 74.1902 32.4663H74.7366C74.7754 32.4663 74.7948 32.4941 74.7948 32.5329V33.3186C74.7948 33.3574 74.7754 33.3769 74.7366 33.3769H74.1902C74.1514 33.3769 74.1237 33.3574 74.1237 33.3186Z" fill="white"/>
<path d="M75.5685 40.8918L75.5935 37.9796L75.5741 34.2097C75.5741 34.1708 75.5935 34.1514 75.6323 34.1514H76.1731C76.2063 34.1514 76.2313 34.1653 76.2313 34.2097L76.2036 35.57C76.5863 34.7982 77.3378 33.9932 78.5108 33.9932C79.8835 33.9932 80.7266 34.8704 80.7266 36.7471V38.0407L80.746 40.8918C80.746 40.939 80.721 40.9501 80.6878 40.9501H80.1331C80.0943 40.9501 80.0749 40.9362 80.0749 40.8918L80.0888 38.0407V36.8054C80.0888 35.148 79.4093 34.5262 78.3805 34.5262C77.3517 34.5262 76.6778 35.2868 76.2313 36.5277V38.0407L76.2452 40.8918C76.2452 40.939 76.2258 40.9501 76.1869 40.9501H75.6323C75.5935 40.9501 75.5657 40.9362 75.5657 40.8918H75.5685Z" fill="white"/>
<path d="M81.1564 37.5717C81.1564 35.484 82.3184 34.0127 84.1431 34.0127C85.9678 34.0127 87.0383 35.273 87.0577 37.4606C87.0577 37.4939 87.0383 37.5189 86.9994 37.5189H81.8164C81.8109 39.6454 82.7593 40.6032 84.2291 40.6032C85.4825 40.6032 86.1675 39.8425 86.3727 38.596C86.3866 38.5572 86.3977 38.5433 86.4393 38.5433H86.9606C86.9994 38.5433 87.0327 38.5627 87.0272 38.6016C86.7887 40.1396 85.8735 41.0918 84.2318 41.0918C82.2213 41.0918 81.1592 39.6648 81.1592 37.5717H81.1564ZM86.3533 37.0164C86.3478 35.6173 85.5879 34.5013 84.1431 34.5013C82.7898 34.5013 81.9939 35.484 81.8414 37.0164H86.3533Z" fill="white"/>
<path d="M87.2823 38.6071C87.2823 38.5683 87.3017 38.5405 87.3405 38.5405H87.848C87.8813 38.5405 87.9062 38.5683 87.9062 38.6071C87.9257 39.973 88.6966 40.6087 90.1081 40.6087C91.2701 40.6087 92.1076 40.0813 92.1076 39.1291C92.1076 36.9054 87.4237 38.5072 87.4237 35.8671C87.4237 34.6512 88.4581 34.0127 89.9112 34.0127C91.3644 34.0127 92.5041 34.654 92.543 36.0864C92.543 36.1253 92.5236 36.1531 92.4847 36.1531H91.9911C91.9523 36.1531 91.9329 36.1253 91.9329 36.0948C91.8941 34.9538 91.015 34.4902 89.9085 34.4902C88.802 34.4902 88.0615 34.9399 88.0615 35.8505C88.0615 37.8854 92.7454 36.2808 92.7454 39.1068C92.7454 40.3533 91.5835 41.0945 90.0943 41.0945C88.3666 41.0945 87.31 40.295 87.2851 38.6127L87.2823 38.6071Z" fill="white"/>
<path d="M92.9811 38.6071C92.9811 38.5683 93.0005 38.5405 93.0394 38.5405H93.5469C93.5801 38.5405 93.6051 38.5683 93.6051 38.6071C93.6245 39.973 94.3955 40.6087 95.807 40.6087C96.9689 40.6087 97.8064 40.0813 97.8064 39.1291C97.8064 36.9054 93.1226 38.5072 93.1226 35.8671C93.1226 34.6512 94.157 34.0127 95.6101 34.0127C97.0632 34.0127 98.203 34.654 98.2418 36.0864C98.2418 36.1253 98.2224 36.1531 98.1836 36.1531H97.69C97.6511 36.1531 97.6317 36.1253 97.6317 36.0948C97.5929 34.9538 96.7138 34.4902 95.6073 34.4902C94.5008 34.4902 93.7604 34.9399 93.7604 35.8505C93.7604 37.8854 98.4443 36.2808 98.4443 39.1068C98.4443 40.3533 97.2823 41.0945 95.7931 41.0945C94.0654 41.0945 93.0089 40.295 92.9839 38.6127L92.9811 38.6071Z" fill="white"/>
<path d="M100.322 37.7826C100.322 37.7437 100.341 37.7243 100.38 37.7243H100.96C100.993 37.7243 101.018 37.7437 101.018 37.7826C101.118 39.5065 101.913 40.5226 103.96 40.5226C105.424 40.5226 106.597 39.9091 106.597 38.3766C106.597 35.4395 100.51 37.48 100.51 34.0515C100.51 32.4275 101.822 31.5752 103.697 31.5752C105.76 31.5752 106.961 32.5385 107.08 34.4013C107.08 34.4401 107.052 34.4596 107.013 34.4596H106.439C106.4 34.4596 106.381 34.4401 106.381 34.4013C106.29 32.8689 105.438 32.1304 103.683 32.1304C102.094 32.1304 101.151 32.7301 101.151 34.0126C101.151 36.7526 107.246 34.7649 107.246 38.3295C107.246 40.1728 105.829 41.0695 103.93 41.0695C101.6 41.0695 100.408 39.8202 100.322 37.7826Z" fill="white"/>
<path d="M107.557 37.5578C107.557 35.4396 108.638 34.0127 110.591 34.0127C112.543 34.0127 113.625 35.4313 113.625 37.5522C113.625 39.6732 112.549 41.0918 110.591 41.0918C108.633 41.0918 107.557 39.6843 107.557 37.5606V37.5578ZM112.959 37.5578C112.959 35.7144 112.174 34.5013 110.591 34.5013C109.021 34.5068 108.222 35.7033 108.222 37.5661C108.222 39.4289 109.021 40.6032 110.591 40.6032C112.16 40.6032 112.959 39.4094 112.959 37.5606V37.5578Z" fill="white"/>
<path d="M114.174 40.8918L114.207 36.2308L114.174 31.7668C114.174 31.7196 114.201 31.7085 114.24 31.7085H114.781C114.82 31.7085 114.839 31.7224 114.839 31.7668L114.811 36.203L114.839 40.8918C114.839 40.939 114.82 40.9501 114.781 40.9501H114.24C114.201 40.9501 114.174 40.9363 114.174 40.8918Z" fill="white"/>
<path d="M115.58 38.3573V37.0637L115.56 34.2126C115.56 34.1654 115.588 34.1543 115.627 34.1543H116.173C116.212 34.1543 116.231 34.1682 116.231 34.2126L116.217 37.0637V38.299C116.217 39.9564 116.897 40.5782 117.931 40.5782C118.966 40.5782 119.634 39.8203 120.075 38.5766V37.0637L120.061 34.2126C120.061 34.1654 120.089 34.1543 120.119 34.1543H120.679C120.713 34.1543 120.738 34.1682 120.738 34.2126L120.71 37.1247L120.729 40.8947C120.729 40.9335 120.71 40.953 120.671 40.953H120.13C120.097 40.953 120.072 40.9391 120.072 40.8947L120.105 39.5344C119.717 40.3061 118.966 41.1112 117.79 41.1112C116.417 41.1112 115.574 40.234 115.574 38.3573H115.58Z" fill="white"/>
<path d="M122.002 39.1818V34.665H121.19C121.151 34.665 121.131 34.6373 121.131 34.6067V34.2098C121.131 34.1709 121.151 34.1515 121.19 34.1515H122.002L121.988 32.508C121.988 32.4608 122.008 32.4497 122.047 32.4497H122.593C122.632 32.4497 122.651 32.4636 122.651 32.508L122.637 34.1515H124.293C124.332 34.1515 124.351 34.1709 124.351 34.2098V34.6067C124.351 34.6401 124.332 34.665 124.293 34.665H122.637L122.643 39.1734C122.643 40.2034 122.906 40.506 123.58 40.506C123.819 40.506 124.101 40.4865 124.285 40.4338C124.323 40.4282 124.351 40.4477 124.351 40.4865V40.8752C124.351 40.914 124.337 40.9279 124.312 40.9335C124.101 40.9807 123.796 41.0445 123.533 41.0445C122.648 41.0445 121.997 40.6087 121.997 39.1762L122.002 39.1818Z" fill="white"/>
<path d="M124.811 40.8918L124.825 37.3522L124.811 34.2097C124.811 34.1625 124.831 34.1514 124.87 34.1514H125.424C125.458 34.1514 125.483 34.1653 125.483 34.2097L125.463 37.3522L125.483 40.8918C125.483 40.939 125.455 40.9501 125.424 40.9501H124.87C124.831 40.9501 124.811 40.9362 124.811 40.8918ZM124.82 33.3186V32.5329C124.82 32.4941 124.847 32.4663 124.886 32.4663H125.433C125.471 32.4663 125.491 32.4941 125.491 32.5329V33.3186C125.491 33.3574 125.471 33.3769 125.433 33.3769H124.886C124.847 33.3769 124.82 33.3574 124.82 33.3186Z" fill="white"/>
<path d="M126.034 37.5578C126.034 35.4396 127.116 34.0127 129.068 34.0127C131.021 34.0127 132.102 35.4313 132.102 37.5522C132.102 39.6732 131.026 41.0918 129.068 41.0918C127.11 41.0918 126.034 39.6843 126.034 37.5606V37.5578ZM131.434 37.5578C131.434 35.7144 130.649 34.5013 129.065 34.5013C127.496 34.5068 126.697 35.7033 126.697 37.5661C126.697 39.4289 127.496 40.6032 129.065 40.6032C130.635 40.6032 131.434 39.4094 131.434 37.5606V37.5578Z" fill="white"/>
<path d="M132.582 40.8918L132.607 37.9796L132.587 34.2097C132.587 34.1708 132.607 34.1514 132.646 34.1514H133.186C133.22 34.1514 133.245 34.1653 133.245 34.2097L133.217 35.57C133.6 34.7982 134.351 33.9932 135.524 33.9932C136.897 33.9932 137.74 34.8704 137.74 36.7471V38.0407L137.759 40.8918C137.759 40.939 137.732 40.9501 137.701 40.9501H137.146C137.108 40.9501 137.088 40.9362 137.088 40.8918L137.102 38.0407V36.8054C137.102 35.148 136.423 34.5262 135.394 34.5262C134.365 34.5262 133.691 35.2868 133.245 36.5277V38.0407L133.258 40.8918C133.258 40.939 133.239 40.9501 133.2 40.9501H132.646C132.607 40.9501 132.579 40.9362 132.579 40.8918H132.582Z" fill="white"/>
<path d="M138.184 38.6071C138.184 38.5683 138.203 38.5405 138.242 38.5405H138.749C138.783 38.5405 138.808 38.5683 138.808 38.6071C138.827 39.973 139.598 40.6087 141.009 40.6087C142.171 40.6087 143.009 40.0813 143.009 39.1291C143.009 36.9054 138.325 38.5072 138.325 35.8671C138.325 34.6512 139.359 34.0127 140.813 34.0127C142.266 34.0127 143.405 34.654 143.444 36.0864C143.444 36.1253 143.425 36.1531 143.386 36.1531H142.892C142.854 36.1531 142.834 36.1253 142.834 36.0948C142.795 34.9538 141.916 34.4902 140.81 34.4902C139.703 34.4902 138.963 34.9399 138.963 35.8505C138.963 37.8854 143.647 36.2808 143.647 39.1068C143.647 40.3533 142.485 41.0945 140.996 41.0945C139.268 41.0945 138.211 40.295 138.186 38.6127L138.184 38.6071Z" fill="white"/>
<path d="M65.6434 24.5131C65.5546 24.5131 65.4659 24.4464 65.4437 24.3576L64.0655 20.2407H57.9285L56.5946 24.3576C56.5724 24.4464 56.4836 24.5131 56.3949 24.5131H53.9268C53.8381 24.5131 53.7937 24.4464 53.8159 24.3576L59.218 9.08906C59.2402 9.00022 59.3289 8.93359 59.4176 8.93359H62.7537C62.8425 8.93359 62.9312 9.00022 62.9534 9.08906L68.2668 24.3576C68.289 24.4464 68.2446 24.5131 68.1559 24.5131H65.6434ZM63.3306 17.9698L60.9734 10.8463L58.6606 17.9698H63.3306Z" fill="white"/>
<path d="M68.7105 24.5131C68.6217 24.5131 68.5552 24.4464 68.5552 24.3576L68.6217 16.6789L68.5552 9.08906C68.5552 9.00022 68.6217 8.93359 68.7105 8.93359H71.0455C71.1342 8.93359 71.2008 9.00022 71.2008 9.08906L71.1564 16.6789L71.2008 24.3576C71.2008 24.4464 71.1342 24.5131 71.0455 24.5131H68.7105Z" fill="white"/>
<path d="M72.4459 11.893C72.3572 11.893 72.2906 11.8264 72.2906 11.7376V9.40009C72.2906 9.31126 72.3572 9.24463 72.4459 9.24463H74.8475C74.9362 9.24463 75.0028 9.31126 75.0028 9.40009V11.7376C75.0028 11.8264 74.9362 11.893 74.8475 11.893H72.4459ZM72.4459 24.5132C72.3572 24.5132 72.2906 24.4466 72.2906 24.3577L72.3128 18.7028L72.2906 13.2061C72.2906 13.1173 72.3572 13.0507 72.4459 13.0507H74.8475C74.9362 13.0507 75.0028 13.1173 75.0028 13.2061L74.9584 18.7028L75.0028 24.3577C75.0028 24.4466 74.9362 24.5132 74.8475 24.5132H72.4459Z" fill="white"/>
<path d="M86.5003 20.596C86.589 20.596 86.6556 20.6626 86.6334 20.7514C86.3228 22.9779 84.4537 24.7796 81.3644 24.7796C77.6733 24.7796 75.6933 22.3088 75.6933 18.8137C75.6933 15.3186 77.8064 12.7812 81.2729 12.7812C84.7393 12.7812 86.8552 15.1854 86.8996 19.1246C86.8996 19.2135 86.8331 19.2801 86.7443 19.2801H78.3611C78.472 21.7286 79.4731 22.8863 81.406 22.8863C82.8064 22.8863 83.7188 22.195 84.0516 20.7487C84.0516 20.6598 84.1403 20.5932 84.2291 20.5932H86.4975L86.5003 20.596ZM81.2951 14.6523C79.695 14.6523 78.7382 15.6323 78.4498 17.4784H84.01C83.8991 15.9876 83.0533 14.6523 81.2978 14.6523H81.2951Z" fill="white"/>
<path d="M97.6151 24.8267C93.5912 24.8267 90.99 23.025 90.8569 19.3744C90.8569 19.2856 90.9235 19.2189 91.0122 19.2189H93.5469C93.6356 19.2189 93.7022 19.2856 93.7243 19.3744C93.9018 21.401 94.8586 22.6696 97.6816 22.6696C99.8392 22.6696 101.217 21.9784 101.217 20.2433C101.217 16.3929 91.1675 19.33 91.1675 13.2309C91.1675 10.3604 93.4359 8.62256 97.1714 8.62256C100.907 8.62256 103.131 10.0911 103.508 13.3863C103.53 13.4752 103.464 13.5418 103.375 13.5418H100.84C100.752 13.5418 100.685 13.4752 100.663 13.3863C100.507 11.7179 99.2845 10.8046 97.0605 10.8046C95.147 10.8046 93.8575 11.4736 93.8575 12.9644C93.8575 16.5927 103.93 13.7445 103.93 19.8658C103.93 23.1166 101.439 24.8294 97.6151 24.8294V24.8267Z" fill="white"/>
<path d="M115.069 20.596C115.158 20.596 115.225 20.6626 115.202 20.7514C114.892 22.9779 113.023 24.7796 109.933 24.7796C106.242 24.7796 104.262 22.3088 104.262 18.8137C104.262 15.3186 106.375 12.7812 109.842 12.7812C113.308 12.7812 115.424 15.1854 115.469 19.1246C115.469 19.2135 115.402 19.2801 115.313 19.2801H106.93C107.041 21.7286 108.042 22.8863 109.975 22.8863C111.375 22.8863 112.288 22.195 112.621 20.7487C112.621 20.6598 112.709 20.5932 112.798 20.5932H115.067L115.069 20.596ZM109.867 14.6523C108.267 14.6523 107.31 15.6323 107.022 17.4784H112.582C112.471 15.9876 111.625 14.6523 109.87 14.6523H109.867Z" fill="white"/>
<path d="M116.226 24.5131C116.137 24.5131 116.07 24.4465 116.07 24.3577L116.137 18.7249L116.07 13.2033C116.07 13.1144 116.137 13.0478 116.226 13.0478H118.583C118.672 13.0478 118.738 13.1144 118.738 13.2033L118.649 15.0522C119.517 13.6724 121.007 12.959 122.651 12.959C122.851 12.959 123.073 12.9812 123.275 13.0256C123.364 13.0256 123.43 13.1144 123.43 13.2033V14.9828C123.43 15.0716 123.364 15.1382 123.275 15.116C123.12 15.116 122.92 15.0938 122.72 15.0938C120.563 15.0938 118.808 16.3625 118.741 18.9665V24.3521C118.741 24.4409 118.674 24.5076 118.586 24.5076H116.229L116.226 24.5131Z" fill="white"/>
<path d="M130.835 24.3574C130.813 24.4462 130.724 24.5128 130.635 24.5128H127.79C127.701 24.5128 127.612 24.4462 127.59 24.3574L123.544 13.2058C123.522 13.1169 123.566 13.0503 123.655 13.0503H126.256C126.345 13.0503 126.434 13.1169 126.456 13.2058L129.301 22.1753L132.324 13.2058C132.346 13.1169 132.435 13.0503 132.524 13.0503H134.77C134.859 13.0503 134.903 13.1169 134.881 13.2058L130.835 24.3574Z" fill="white"/>
<path d="M135.302 11.893C135.214 11.893 135.147 11.8264 135.147 11.7376V9.40009C135.147 9.31126 135.214 9.24463 135.302 9.24463H137.704C137.793 9.24463 137.859 9.31126 137.859 9.40009V11.7376C137.859 11.8264 137.793 11.893 137.704 11.893H135.302ZM135.302 24.5132C135.214 24.5132 135.147 24.4466 135.147 24.3577L135.169 18.7028L135.147 13.2061C135.147 13.1173 135.214 13.0507 135.302 13.0507H137.704C137.793 13.0507 137.859 13.1173 137.859 13.2061L137.815 18.7028L137.859 24.3577C137.859 24.4466 137.793 24.5132 137.704 24.5132H135.302Z" fill="white"/>
<path d="M144.151 24.7825C140.593 24.7825 138.547 22.445 138.547 18.8166C138.547 15.1883 140.593 12.7842 144.196 12.7842C147.085 12.7842 148.932 14.4526 149.154 16.9233C149.176 17.0122 149.11 17.0788 149.021 17.0788H146.864C146.775 17.0788 146.708 17.0122 146.686 16.9233C146.42 15.4548 145.485 14.6969 144.196 14.6969C142.216 14.6969 141.284 16.1211 141.284 18.7917C141.284 21.4623 142.241 22.8642 144.196 22.8864C145.663 22.9086 146.62 21.9731 146.775 20.3046C146.797 20.2158 146.864 20.1492 146.952 20.1492H149.176C149.265 20.1492 149.332 20.2158 149.309 20.3046C149.11 22.8864 147.13 24.7797 144.151 24.7797V24.7825Z" fill="white"/>
<path d="M160.383 20.596C160.471 20.596 160.538 20.6626 160.516 20.7514C160.205 22.9779 158.336 24.7796 155.247 24.7796C151.556 24.7796 149.576 22.3088 149.576 18.8137C149.576 15.3186 151.689 12.7812 155.158 12.7812C158.627 12.7812 160.74 15.1854 160.785 19.1246C160.785 19.2135 160.718 19.2801 160.63 19.2801H152.246C152.357 21.7286 153.358 22.8863 155.291 22.8863C156.692 22.8863 157.604 22.195 157.937 20.7487C157.937 20.6598 158.026 20.5932 158.114 20.5932H160.383V20.596ZM155.18 14.6523C153.58 14.6523 152.623 15.6323 152.335 17.4784H157.895C157.784 15.9876 156.938 14.6523 155.183 14.6523H155.18Z" fill="white"/>
<path d="M166.209 24.7822C162.962 24.7822 160.984 23.4024 160.918 20.7762C160.918 20.6874 160.984 20.6208 161.073 20.6208H163.364C163.453 20.6208 163.519 20.6874 163.519 20.7762C163.586 22.3114 164.565 23.0027 166.364 23.0027C167.876 23.0027 168.788 22.403 168.788 21.3342C168.788 18.7969 161.184 21.0455 161.184 16.3262C161.184 14.0109 163.053 12.7866 165.943 12.7866C168.832 12.7866 170.79 13.9887 170.946 16.3928C170.946 16.4816 170.879 16.5482 170.79 16.5482H168.611C168.522 16.5482 168.455 16.4816 168.433 16.3928C168.278 15.1907 167.432 14.5217 165.921 14.5217C164.587 14.5217 163.741 15.0103 163.741 16.1235C163.741 18.5942 171.345 16.2567 171.345 21.1094C171.345 23.4469 169.165 24.7822 166.209 24.7822Z" fill="white"/>
<path d="M172.252 10.7159C170.574 10.7159 169.468 9.54157 169.468 7.81206C169.468 6.08255 170.557 4.8916 172.252 4.8916C173.946 4.8916 175 6.01592 175 7.81206C175 9.6082 173.927 10.7159 172.252 10.7159ZM172.252 10.1773C173.627 10.1773 174.431 9.28895 174.431 7.81206C174.431 6.33517 173.644 5.43016 172.252 5.43016C170.86 5.43016 170.055 6.33517 170.055 7.81206C170.055 9.28895 170.86 10.1773 172.252 10.1773ZM172.471 8.76704L172.052 8.17851H171.633V9.31948C171.633 9.38611 171.583 9.43608 171.517 9.43608H171.032C170.965 9.43608 170.915 9.38611 170.915 9.31948V6.26577C170.915 6.19915 170.965 6.14918 171.032 6.14918H172.205C173.075 6.14918 173.597 6.48508 173.597 7.1569C173.597 7.64272 173.311 7.96197 172.826 8.098L173.63 9.33892C173.663 9.38889 173.63 9.43886 173.58 9.43886H172.959C172.892 9.43886 172.826 9.38889 172.793 9.33892L172.474 8.76704H172.471ZM172.235 6.68774H171.631V7.64549H172.235C172.604 7.64549 172.873 7.51224 172.873 7.17633C172.873 6.84042 172.637 6.69052 172.235 6.69052V6.68774Z" fill="white"/>
<path d="M22.0022 30.476L13.2612 15.2991L22.1797 0L43.9656 37.8216L43.949 38.5323L39.9029 45.6086C39.7754 45.889 39.5618 45.8751 39.3039 45.9056C36.7027 46.2082 33.4775 45.6835 30.8125 45.8667L22.1825 30.6565L13.2307 45.8084L4.57293 45.8612L0 38.2464L4.53411 30.476H22.0022Z" fill="#0123D7"/>
</g>
<defs>
<clipPath id="clip0_30_1270">
<rect width="175" height="46" fill="white"/>
</clipPath>
</defs>
</svg>
