<svg width="175" height="47" viewBox="0 0 175 47" fill="none" xmlns="http://www.w3.org/2000/svg">
<g clip-path="url(#clip0_30_1612)">
<path d="M55.2468 41.568L55.2745 36.7486L55.2468 32.4429C55.2468 32.3957 55.2662 32.3846 55.305 32.3846H58.5247C60.3716 32.3846 61.5973 33.198 61.5973 34.5555C61.5973 35.7437 61.0094 36.3766 59.8225 36.6626C61.2729 37.0124 61.8608 37.8119 61.8941 38.9418C61.8941 40.8573 60.4021 41.629 58.5164 41.629H55.305C55.2662 41.629 55.2468 41.6151 55.2468 41.5707V41.568ZM58.4969 36.4238C59.9667 36.4238 60.904 35.988 60.904 34.6999C60.904 33.4978 59.9556 32.9176 58.4969 32.9176H55.9456L55.9179 36.4238H58.4969ZM58.4969 41.0794C60.1137 41.0794 61.1952 40.4908 61.1952 38.9529C61.1952 37.526 59.9085 36.9596 58.4969 36.9596H55.9179L55.9456 41.0794H58.4969Z" fill="#00023D"/>
<path d="M62.4764 39.0334V37.7397L62.457 34.8887C62.457 34.8415 62.4847 34.8304 62.5236 34.8304H63.0699C63.1087 34.8304 63.1281 34.8442 63.1281 34.8887L63.1143 37.7397V38.9751C63.1143 40.6324 63.7937 41.2543 64.8281 41.2543C65.8625 41.2543 66.5308 40.4964 66.9717 39.2527V37.7397L66.9578 34.8887C66.9578 34.8415 66.9856 34.8304 67.0161 34.8304H67.5763C67.6095 34.8304 67.6345 34.8442 67.6345 34.8887L67.6068 37.8008L67.6262 41.5707C67.6262 41.6096 67.6068 41.629 67.5679 41.629H67.0272C66.9939 41.629 66.9689 41.6151 66.9689 41.5707L67.0022 40.2104C66.614 40.9822 65.8624 41.7873 64.6866 41.7873C63.3139 41.7873 62.4709 40.91 62.4709 39.0334H62.4764Z" fill="#00023D"/>
<path d="M68.1226 39.2832C68.1226 39.2444 68.142 39.2166 68.1808 39.2166H68.6883C68.7216 39.2166 68.7465 39.2444 68.7465 39.2832C68.7659 40.6491 69.5369 41.2848 70.9484 41.2848C72.1104 41.2848 72.9479 40.7573 72.9479 39.8051C72.9479 37.5815 68.264 39.1833 68.264 36.5432C68.264 35.3273 69.2984 34.6888 70.7515 34.6888C72.2047 34.6888 73.3444 35.3301 73.3833 36.7625C73.3833 36.8014 73.3638 36.8291 73.325 36.8291H72.8314C72.7926 36.8291 72.7732 36.8014 72.7732 36.7709C72.7343 35.6299 71.8552 35.1663 70.7488 35.1663C69.6423 35.1663 68.9018 35.616 68.9018 36.5266C68.9018 38.5614 73.5857 36.9568 73.5857 39.7829C73.5857 41.0294 72.4237 41.7706 70.9346 41.7706C69.2069 41.7706 68.1503 40.9711 68.1253 39.2888L68.1226 39.2832Z" fill="#00023D"/>
<path d="M74.1181 41.568L74.132 38.0284L74.1181 34.8859C74.1181 34.8387 74.1376 34.8276 74.1764 34.8276H74.731C74.7643 34.8276 74.7892 34.8415 74.7892 34.8859L74.7698 38.0284L74.7892 41.568C74.7892 41.6152 74.7615 41.6263 74.731 41.6263H74.1764C74.1376 41.6263 74.1181 41.6124 74.1181 41.568ZM74.1237 33.9947V33.2091C74.1237 33.1702 74.1514 33.1425 74.1902 33.1425H74.7366C74.7754 33.1425 74.7948 33.1702 74.7948 33.2091V33.9947C74.7948 34.0336 74.7754 34.053 74.7366 34.053H74.1902C74.1514 34.053 74.1237 34.0336 74.1237 33.9947Z" fill="#00023D"/>
<path d="M75.5685 41.568L75.5935 38.6558L75.574 34.8859C75.574 34.847 75.5935 34.8276 75.6323 34.8276H76.173C76.2063 34.8276 76.2313 34.8415 76.2313 34.8859L76.2036 36.2462C76.5862 35.4744 77.3378 34.6693 78.5108 34.6693C79.8835 34.6693 80.7266 35.5466 80.7266 37.4232V38.7169L80.746 41.568C80.746 41.6151 80.721 41.6263 80.6877 41.6263H80.1331C80.0943 41.6263 80.0749 41.6124 80.0749 41.568L80.0887 38.7169V37.4815C80.0887 35.8242 79.4093 35.2024 78.3805 35.2024C77.3516 35.2024 76.6778 35.963 76.2313 37.2039V38.7169L76.2451 41.568C76.2451 41.6151 76.2257 41.6263 76.1869 41.6263H75.6323C75.5935 41.6263 75.5657 41.6124 75.5657 41.568H75.5685Z" fill="#00023D"/>
<path d="M81.1564 38.2477C81.1564 36.1601 82.3184 34.6888 84.1431 34.6888C85.9678 34.6888 87.0383 35.9491 87.0577 38.1367C87.0577 38.17 87.0383 38.195 86.9994 38.195H81.8164C81.8109 40.3215 82.7593 41.2792 84.2291 41.2792C85.4825 41.2792 86.1675 40.5186 86.3727 39.2721C86.3866 39.2333 86.3977 39.2194 86.4393 39.2194H86.9606C86.9994 39.2194 87.0327 39.2388 87.0272 39.2777C86.7887 40.8156 85.8735 41.7678 84.2318 41.7678C82.2213 41.7678 81.1592 40.3409 81.1592 38.2477H81.1564ZM86.3533 37.6925C86.3478 36.2934 85.5879 35.1774 84.1431 35.1774C82.7898 35.1774 81.9939 36.1601 81.8414 37.6925H86.3533Z" fill="#00023D"/>
<path d="M87.2823 39.2832C87.2823 39.2444 87.3017 39.2166 87.3405 39.2166H87.848C87.8813 39.2166 87.9063 39.2444 87.9063 39.2832C87.9257 40.6491 88.6966 41.2848 90.1081 41.2848C91.2701 41.2848 92.1076 40.7573 92.1076 39.8051C92.1076 37.5815 87.4237 39.1833 87.4237 36.5432C87.4237 35.3273 88.4581 34.6888 89.9113 34.6888C91.3644 34.6888 92.5042 35.3301 92.543 36.7625C92.543 36.8014 92.5236 36.8291 92.4847 36.8291H91.9911C91.9523 36.8291 91.9329 36.8014 91.9329 36.7709C91.8941 35.6299 91.015 35.1663 89.9085 35.1663C88.802 35.1663 88.0616 35.616 88.0616 36.5266C88.0616 38.5614 92.7454 36.9568 92.7454 39.7829C92.7454 41.0294 91.5835 41.7706 90.0943 41.7706C88.3666 41.7706 87.31 40.9711 87.2851 39.2888L87.2823 39.2832Z" fill="#00023D"/>
<path d="M92.9811 39.2832C92.9811 39.2444 93.0005 39.2166 93.0394 39.2166H93.5469C93.5801 39.2166 93.6051 39.2444 93.6051 39.2832C93.6245 40.6491 94.3955 41.2848 95.807 41.2848C96.9689 41.2848 97.8064 40.7573 97.8064 39.8051C97.8064 37.5815 93.1226 39.1833 93.1226 36.5432C93.1226 35.3273 94.157 34.6888 95.6101 34.6888C97.0632 34.6888 98.203 35.3301 98.2418 36.7625C98.2418 36.8014 98.2224 36.8291 98.1836 36.8291H97.69C97.6511 36.8291 97.6317 36.8014 97.6317 36.7709C97.5929 35.6299 96.7138 35.1663 95.6073 35.1663C94.5008 35.1663 93.7604 35.616 93.7604 36.5266C93.7604 38.5614 98.4443 36.9568 98.4443 39.7829C98.4443 41.0294 97.2823 41.7706 95.7931 41.7706C94.0654 41.7706 93.0089 40.9711 92.9839 39.2888L92.9811 39.2832Z" fill="#00023D"/>
<path d="M100.322 38.4587C100.322 38.4199 100.341 38.4004 100.38 38.4004H100.96C100.993 38.4004 101.018 38.4199 101.018 38.4587C101.118 40.1827 101.913 41.1987 103.96 41.1987C105.424 41.1987 106.597 40.5852 106.597 39.0528C106.597 36.1157 100.51 38.1561 100.51 34.7276C100.51 33.1036 101.822 32.2514 103.697 32.2514C105.76 32.2514 106.961 33.2147 107.08 35.0774C107.08 35.1163 107.052 35.1357 107.013 35.1357H106.439C106.4 35.1357 106.381 35.1163 106.381 35.0774C106.29 33.545 105.438 32.8066 103.683 32.8066C102.094 32.8066 101.151 33.4062 101.151 34.6888C101.151 37.4288 107.246 35.4411 107.246 39.0056C107.246 40.8489 105.829 41.7456 103.93 41.7456C101.6 41.7456 100.408 40.4964 100.322 38.4587Z" fill="#00023D"/>
<path d="M107.557 38.2339C107.557 36.1157 108.638 34.6888 110.591 34.6888C112.543 34.6888 113.625 36.1074 113.625 38.2283C113.625 40.3492 112.549 41.7678 110.591 41.7678C108.633 41.7678 107.557 40.3604 107.557 38.2366V38.2339ZM112.959 38.2339C112.959 36.3905 112.174 35.1774 110.591 35.1774C109.021 35.1829 108.222 36.3794 108.222 38.2422C108.222 40.105 109.021 41.2792 110.591 41.2792C112.16 41.2792 112.959 40.0855 112.959 38.2366V38.2339Z" fill="#00023D"/>
<path d="M114.174 41.568L114.207 36.9069L114.174 32.4429C114.174 32.3957 114.201 32.3846 114.24 32.3846H114.781C114.82 32.3846 114.839 32.3985 114.839 32.4429L114.811 36.8791L114.839 41.568C114.839 41.6152 114.82 41.6263 114.781 41.6263H114.24C114.201 41.6263 114.174 41.6124 114.174 41.568Z" fill="#00023D"/>
<path d="M115.58 39.0334V37.7397L115.56 34.8887C115.56 34.8415 115.588 34.8304 115.627 34.8304H116.173C116.212 34.8304 116.231 34.8442 116.231 34.8887L116.217 37.7397V38.9751C116.217 40.6324 116.897 41.2543 117.931 41.2543C118.966 41.2543 119.634 40.4964 120.075 39.2527V37.7397L120.061 34.8887C120.061 34.8415 120.089 34.8304 120.119 34.8304H120.679C120.713 34.8304 120.738 34.8442 120.738 34.8887L120.71 37.8008L120.729 41.5707C120.729 41.6096 120.71 41.629 120.671 41.629H120.13C120.097 41.629 120.072 41.6151 120.072 41.5707L120.105 40.2104C119.717 40.9822 118.966 41.7873 117.79 41.7873C116.417 41.7873 115.574 40.91 115.574 39.0334H115.58Z" fill="#00023D"/>
<path d="M122.002 39.8579V35.3412H121.19C121.151 35.3412 121.131 35.3134 121.131 35.2829V34.8859C121.131 34.847 121.151 34.8276 121.19 34.8276H122.002L121.988 33.1841C121.988 33.1369 122.008 33.1258 122.047 33.1258H122.593C122.632 33.1258 122.651 33.1397 122.651 33.1841L122.637 34.8276H124.293C124.332 34.8276 124.351 34.847 124.351 34.8859V35.2829C124.351 35.3162 124.332 35.3412 124.293 35.3412H122.637L122.643 39.8495C122.643 40.8795 122.906 41.1821 123.58 41.1821C123.819 41.1821 124.101 41.1626 124.285 41.1099C124.323 41.1043 124.351 41.1238 124.351 41.1626V41.5513C124.351 41.5902 124.337 41.604 124.312 41.6096C124.101 41.6568 123.796 41.7206 123.533 41.7206C122.648 41.7206 121.997 41.2848 121.997 39.8523L122.002 39.8579Z" fill="#00023D"/>
<path d="M124.811 41.568L124.825 38.0284L124.811 34.8859C124.811 34.8387 124.831 34.8276 124.87 34.8276H125.424C125.458 34.8276 125.483 34.8415 125.483 34.8859L125.463 38.0284L125.483 41.568C125.483 41.6152 125.455 41.6263 125.424 41.6263H124.87C124.831 41.6263 124.811 41.6124 124.811 41.568ZM124.82 33.9947V33.2091C124.82 33.1702 124.847 33.1425 124.886 33.1425H125.433C125.471 33.1425 125.491 33.1702 125.491 33.2091V33.9947C125.491 34.0336 125.471 34.053 125.433 34.053H124.886C124.847 34.053 124.82 34.0336 124.82 33.9947Z" fill="#00023D"/>
<path d="M126.034 38.2339C126.034 36.1157 127.116 34.6888 129.068 34.6888C131.021 34.6888 132.102 36.1074 132.102 38.2283C132.102 40.3492 131.026 41.7678 129.068 41.7678C127.11 41.7678 126.034 40.3604 126.034 38.2366V38.2339ZM131.434 38.2339C131.434 36.3905 130.649 35.1774 129.065 35.1774C127.496 35.1829 126.697 36.3794 126.697 38.2422C126.697 40.105 127.496 41.2792 129.065 41.2792C130.635 41.2792 131.434 40.0855 131.434 38.2366V38.2339Z" fill="#00023D"/>
<path d="M132.582 41.568L132.607 38.6558L132.587 34.8859C132.587 34.847 132.607 34.8276 132.646 34.8276H133.186C133.22 34.8276 133.245 34.8415 133.245 34.8859L133.217 36.2462C133.6 35.4744 134.351 34.6693 135.524 34.6693C136.897 34.6693 137.74 35.5466 137.74 37.4232V38.7169L137.759 41.568C137.759 41.6151 137.732 41.6263 137.701 41.6263H137.146C137.108 41.6263 137.088 41.6124 137.088 41.568L137.102 38.7169V37.4815C137.102 35.8242 136.423 35.2024 135.394 35.2024C134.365 35.2024 133.691 35.963 133.245 37.2039V38.7169L133.258 41.568C133.258 41.6151 133.239 41.6263 133.2 41.6263H132.646C132.607 41.6263 132.579 41.6124 132.579 41.568H132.582Z" fill="#00023D"/>
<path d="M138.184 39.2832C138.184 39.2444 138.203 39.2166 138.242 39.2166H138.749C138.783 39.2166 138.808 39.2444 138.808 39.2832C138.827 40.6491 139.598 41.2848 141.009 41.2848C142.171 41.2848 143.009 40.7573 143.009 39.8051C143.009 37.5815 138.325 39.1833 138.325 36.5432C138.325 35.3273 139.359 34.6888 140.813 34.6888C142.266 34.6888 143.405 35.3301 143.444 36.7625C143.444 36.8014 143.425 36.8291 143.386 36.8291H142.892C142.854 36.8291 142.834 36.8014 142.834 36.7709C142.795 35.6299 141.916 35.1663 140.81 35.1663C139.703 35.1663 138.963 35.616 138.963 36.5266C138.963 38.5614 143.647 36.9568 143.647 39.7829C143.647 41.0294 142.485 41.7706 140.996 41.7706C139.268 41.7706 138.211 40.9711 138.186 39.2888L138.184 39.2832Z" fill="#00023D"/>
<path d="M65.6434 25.189C65.5546 25.189 65.4659 25.1223 65.4437 25.0335L64.0655 20.9165H57.9285L56.5946 25.0335C56.5724 25.1223 56.4836 25.189 56.3949 25.189H53.9268C53.8381 25.189 53.7937 25.1223 53.8159 25.0335L59.218 9.76494C59.2402 9.6761 59.3289 9.60947 59.4176 9.60947H62.7537C62.8425 9.60947 62.9312 9.6761 62.9534 9.76494L68.2668 25.0335C68.289 25.1223 68.2446 25.189 68.1559 25.189H65.6434ZM63.3306 18.6457L60.9734 11.5222L58.6606 18.6457H63.3306Z" fill="#00023D"/>
<path d="M68.7105 25.189C68.6217 25.189 68.5552 25.1223 68.5552 25.0335L68.6217 17.3548L68.5552 9.76494C68.5552 9.6761 68.6217 9.60947 68.7105 9.60947H71.0455C71.1342 9.60947 71.2008 9.6761 71.2008 9.76494L71.1564 17.3548L71.2008 25.0335C71.2008 25.1223 71.1342 25.189 71.0455 25.189H68.7105Z" fill="#00023D"/>
<path d="M72.4459 12.5688C72.3572 12.5688 72.2906 12.5022 72.2906 12.4133V10.0759C72.2906 9.98702 72.3572 9.92039 72.4459 9.92039H74.8475C74.9362 9.92039 75.0028 9.98702 75.0028 10.0759V12.4133C75.0028 12.5022 74.9362 12.5688 74.8475 12.5688H72.4459ZM72.4459 25.189C72.3572 25.189 72.2906 25.1223 72.2906 25.0335L72.3128 19.3786L72.2906 13.8819C72.2906 13.7931 72.3572 13.7264 72.4459 13.7264H74.8475C74.9362 13.7264 75.0028 13.7931 75.0028 13.8819L74.9584 19.3786L75.0028 25.0335C75.0028 25.1223 74.9362 25.189 74.8475 25.189H72.4459Z" fill="#00023D"/>
<path d="M86.5003 21.2719C86.589 21.2719 86.6556 21.3385 86.6334 21.4273C86.3228 23.6538 84.4537 25.4555 81.3644 25.4555C77.6733 25.4555 75.6933 22.9847 75.6933 19.4896C75.6933 15.9945 77.8064 13.4571 81.2729 13.4571C84.7393 13.4571 86.8552 15.8613 86.8996 19.8005C86.8996 19.8894 86.8331 19.956 86.7443 19.956H78.3611C78.472 22.4045 79.4731 23.5622 81.406 23.5622C82.8064 23.5622 83.7188 22.8709 84.0516 21.4246C84.0516 21.3357 84.1403 21.2691 84.2291 21.2691H86.4975L86.5003 21.2719ZM81.2951 15.3282C79.695 15.3282 78.7382 16.3082 78.4498 18.1543H84.01C83.8991 16.6635 83.0533 15.3282 81.2978 15.3282H81.2951Z" fill="#00023D"/>
<path d="M97.6151 25.5027C93.5912 25.5027 90.99 23.701 90.8569 20.0504C90.8569 19.9616 90.9235 19.8949 91.0122 19.8949H93.5469C93.6356 19.8949 93.7022 19.9616 93.7243 20.0504C93.9018 22.0769 94.8586 23.3456 97.6816 23.3456C99.8392 23.3456 101.217 22.6544 101.217 20.9193C101.217 17.0689 91.1675 20.006 91.1675 13.9069C91.1675 11.0364 93.4359 9.29855 97.1714 9.29855C100.907 9.29855 103.131 10.7671 103.508 14.0623C103.53 14.1512 103.464 14.2178 103.375 14.2178H100.84C100.752 14.2178 100.685 14.1512 100.663 14.0623C100.507 12.3939 99.2845 11.4806 97.0605 11.4806C95.147 11.4806 93.8575 12.1496 93.8575 13.6404C93.8575 17.2687 103.93 14.4205 103.93 20.5418C103.93 23.7926 101.439 25.5054 97.6151 25.5054V25.5027Z" fill="#00023D"/>
<path d="M115.069 21.2719C115.158 21.2719 115.225 21.3385 115.202 21.4273C114.892 23.6538 113.023 25.4555 109.933 25.4555C106.242 25.4555 104.262 22.9847 104.262 19.4896C104.262 15.9945 106.375 13.4571 109.842 13.4571C113.308 13.4571 115.424 15.8613 115.469 19.8005C115.469 19.8894 115.402 19.956 115.313 19.956H106.93C107.041 22.4045 108.042 23.5622 109.975 23.5622C111.375 23.5622 112.288 22.8709 112.621 21.4246C112.621 21.3357 112.709 21.2691 112.798 21.2691H115.067L115.069 21.2719ZM109.867 15.3282C108.267 15.3282 107.31 16.3082 107.022 18.1543H112.582C112.471 16.6635 111.625 15.3282 109.87 15.3282H109.867Z" fill="#00023D"/>
<path d="M116.226 25.189C116.137 25.189 116.07 25.1223 116.07 25.0335L116.137 19.4008L116.07 13.8791C116.07 13.7903 116.137 13.7237 116.226 13.7237H118.583C118.672 13.7237 118.738 13.7903 118.738 13.8791L118.649 15.728C119.517 14.3483 121.007 13.6348 122.651 13.6348C122.851 13.6348 123.073 13.657 123.275 13.7014C123.364 13.7014 123.43 13.7903 123.43 13.8791V15.6586C123.43 15.7474 123.364 15.8141 123.275 15.7919C123.12 15.7919 122.92 15.7696 122.72 15.7696C120.563 15.7696 118.808 17.0383 118.741 19.6423V25.0279C118.741 25.1168 118.674 25.1834 118.586 25.1834H116.229L116.226 25.189Z" fill="#00023D"/>
<path d="M130.835 25.0335C130.813 25.1223 130.724 25.189 130.635 25.189H127.79C127.701 25.189 127.612 25.1223 127.59 25.0335L123.544 13.8819C123.522 13.7931 123.566 13.7264 123.655 13.7264H126.256C126.345 13.7264 126.434 13.7931 126.456 13.8819L129.301 22.8515L132.324 13.8819C132.346 13.7931 132.435 13.7264 132.524 13.7264H134.77C134.859 13.7264 134.903 13.7931 134.881 13.8819L130.835 25.0335Z" fill="#00023D"/>
<path d="M135.302 12.5688C135.214 12.5688 135.147 12.5022 135.147 12.4133V10.0759C135.147 9.98702 135.214 9.92039 135.302 9.92039H137.704C137.793 9.92039 137.859 9.98702 137.859 10.0759V12.4133C137.859 12.5022 137.793 12.5688 137.704 12.5688H135.302ZM135.302 25.189C135.214 25.189 135.147 25.1223 135.147 25.0335L135.169 19.3786L135.147 13.8819C135.147 13.7931 135.214 13.7264 135.302 13.7264H137.704C137.793 13.7264 137.859 13.7931 137.859 13.8819L137.815 19.3786L137.859 25.0335C137.859 25.1223 137.793 25.189 137.704 25.189H135.302Z" fill="#00023D"/>
<path d="M144.151 25.4582C140.593 25.4582 138.547 23.1208 138.547 19.4924C138.547 15.864 140.593 13.4599 144.196 13.4599C147.085 13.4599 148.932 15.1284 149.154 17.5991C149.176 17.6879 149.11 17.7546 149.021 17.7546H146.864C146.775 17.7546 146.708 17.6879 146.686 17.5991C146.42 16.1305 145.485 15.3727 144.196 15.3727C142.216 15.3727 141.284 16.7968 141.284 19.4674C141.284 22.138 142.241 23.54 144.196 23.5622C145.663 23.5844 146.62 22.6488 146.775 20.9804C146.797 20.8916 146.864 20.8249 146.952 20.8249H149.176C149.265 20.8249 149.332 20.8916 149.309 20.9804C149.11 23.5622 147.13 25.4555 144.151 25.4555V25.4582Z" fill="#00023D"/>
<path d="M160.383 21.2719C160.471 21.2719 160.538 21.3385 160.516 21.4273C160.205 23.6538 158.336 25.4555 155.247 25.4555C151.556 25.4555 149.576 22.9847 149.576 19.4896C149.576 15.9945 151.689 13.4571 155.158 13.4571C158.627 13.4571 160.74 15.8613 160.785 19.8005C160.785 19.8894 160.718 19.956 160.63 19.956H152.246C152.357 22.4045 153.358 23.5622 155.291 23.5622C156.692 23.5622 157.604 22.8709 157.937 21.4246C157.937 21.3357 158.026 21.2691 158.114 21.2691H160.383V21.2719ZM155.18 15.3282C153.58 15.3282 152.623 16.3082 152.335 18.1543H157.895C157.784 16.6635 156.938 15.3282 155.183 15.3282H155.18Z" fill="#00023D"/>
<path d="M166.209 25.4582C162.962 25.4582 160.984 24.0785 160.918 21.4523C160.918 21.3635 160.984 21.2969 161.073 21.2969H163.364C163.453 21.2969 163.519 21.3635 163.519 21.4523C163.586 22.9875 164.565 23.6788 166.364 23.6788C167.876 23.6788 168.788 23.0791 168.788 22.0103C168.788 19.473 161.184 21.7216 161.184 17.0022C161.184 14.687 163.053 13.4627 165.943 13.4627C168.833 13.4627 170.79 14.6648 170.946 17.0689C170.946 17.1577 170.879 17.2243 170.79 17.2243H168.611C168.522 17.2243 168.455 17.1577 168.433 17.0689C168.278 15.8668 167.432 15.1978 165.921 15.1978C164.587 15.1978 163.741 15.6864 163.741 16.7996C163.741 19.2703 171.345 16.9328 171.345 21.7855C171.345 24.1229 169.165 25.4582 166.209 25.4582Z" fill="#00023D"/>
<path d="M172.252 11.3917C170.574 11.3917 169.468 10.2174 169.468 8.48793C169.468 6.75842 170.557 5.56747 172.252 5.56747C173.946 5.56747 175 6.69179 175 8.48793C175 10.2841 173.927 11.3917 172.252 11.3917ZM172.252 10.8532C173.627 10.8532 174.432 9.96482 174.432 8.48793C174.432 7.01104 173.644 6.10603 172.252 6.10603C170.86 6.10603 170.055 7.01104 170.055 8.48793C170.055 9.96482 170.86 10.8532 172.252 10.8532ZM172.471 9.44291L172.052 8.85437H171.633V9.99535C171.633 10.062 171.583 10.1119 171.517 10.1119H171.032C170.965 10.1119 170.915 10.062 170.915 9.99535V6.94164C170.915 6.87501 170.965 6.82504 171.032 6.82504H172.205C173.075 6.82504 173.597 7.16095 173.597 7.83277C173.597 8.31859 173.311 8.63784 172.826 8.77387L173.63 10.0148C173.663 10.0648 173.63 10.1147 173.58 10.1147H172.959C172.892 10.1147 172.826 10.0648 172.793 10.0148L172.474 9.44291H172.471ZM172.235 7.36361H171.631V8.32136H172.235C172.604 8.32136 172.873 8.18811 172.873 7.8522C172.873 7.51629 172.637 7.36638 172.235 7.36638V7.36361Z" fill="#00023D"/>
<path d="M22.0022 31.152L13.2612 15.9751L22.1797 0.67598L43.9656 38.4976L43.949 39.2083L39.9029 46.2845C39.7754 46.5649 39.5618 46.5511 39.3039 46.5816C36.7027 46.8842 33.4775 46.3595 30.8125 46.5427L22.1825 31.3325L13.2307 46.4844L4.57293 46.5372L0 38.9223L4.53411 31.152H22.0022Z" fill="#0123D7"/>
</g>
<defs>
<clipPath id="clip0_30_1612">
<rect width="175" height="46" fill="white" transform="translate(0 0.67598)"/>
</clipPath>
</defs>
</svg>
