<svg width="66" height="53" viewBox="0 0 66 53" fill="none" xmlns="http://www.w3.org/2000/svg">
<rect width="65.1049" height="53" rx="6.54321" fill="#A9C0F5"/>
<path d="M29.9669 31L24 31" stroke="#0123D7" stroke-width="2" stroke-linecap="round"/>
<path d="M42 21H36" stroke="#0123D7" stroke-width="2" stroke-linecap="round"/>
<path d="M24.01 21L24 21" stroke="#0123D7" stroke-width="2" stroke-linecap="round"/>
<path d="M42.01 31L42 31" stroke="#0123D7" stroke-width="2" stroke-linecap="round"/>
<path d="M35.9337 28C37.5814 28 38.9172 29.3431 38.9172 31C38.9172 32.6569 37.5814 34 35.9337 34C34.286 34 32.9503 32.6569 32.9503 31C32.9503 29.3431 34.286 28 35.9337 28Z" stroke="#0123D7" stroke-width="2"/>
<path d="M29.9668 18C31.6145 18 32.9502 19.3431 32.9502 21C32.9502 22.6569 31.6145 24 29.9668 24C28.3191 24 26.9834 22.6569 26.9834 21C26.9834 19.3431 28.3191 18 29.9668 18Z" stroke="#0123D7" stroke-width="2"/>
</svg>
