<svg width="66" height="53" viewBox="0 0 66 53" fill="none" xmlns="http://www.w3.org/2000/svg">
<rect width="65.1049" height="53" rx="6.54321" fill="#A9C0F5"/>
<path d="M30 31H36" stroke="#0123D7" stroke-width="2" stroke-linecap="round"/>
<path d="M30 27H36" stroke="#0123D7" stroke-width="2" stroke-linecap="round"/>
<path d="M30 23H31" stroke="#0123D7" stroke-width="2" stroke-linecap="round"/>
<path d="M26 20C26 18.3431 27.3431 17 29 17H34.1716C34.702 17 35.2107 17.2107 35.5858 17.5858L39.4142 21.4142C39.7893 21.7893 40 22.298 40 22.8284V32C40 33.6569 38.6569 35 37 35H29C27.3431 35 26 33.6569 26 32V20Z" stroke="#0123D7" stroke-width="2"/>
<path d="M34 17V19C34 21.2091 35.7909 23 38 23H40" stroke="#0123D7" stroke-width="2"/>
</svg>
