<svg width="66" height="53" viewBox="0 0 66 53" fill="none" xmlns="http://www.w3.org/2000/svg">
<rect width="65.1049" height="53" rx="6.54321" fill="#A9C0F5"/>
<path d="M32 19.9999C32 19.4476 31.5506 18.9935 31.0026 19.0623C29.7738 19.2168 28.5928 19.6551 27.5554 20.3482C26.2398 21.2272 25.2145 22.4767 24.609 23.9385C24.0035 25.4003 23.845 27.0088 24.1537 28.5607C24.4624 30.1125 25.2243 31.538 26.3431 32.6568C27.462 33.7756 28.8874 34.5375 30.4393 34.8462C31.9911 35.1549 33.5997 34.9965 35.0615 34.391C36.5233 33.7855 37.7727 32.7601 38.6518 31.4445C39.3449 30.4072 39.7832 29.2262 39.9376 27.9974C40.0064 27.4494 39.5523 26.9999 39 26.9999H33C32.4477 26.9999 32 26.5522 32 25.9999V19.9999Z" stroke="#0123D7" stroke-width="2"/>
<path d="M35 18.0001C35 17.4478 35.45 16.9927 35.9966 17.0714C36.5731 17.1543 37.1383 17.309 37.6788 17.5329C38.5281 17.8847 39.2997 18.4003 39.9497 19.0503C40.5998 19.7003 41.1154 20.472 41.4672 21.3213C41.691 21.8618 41.8458 22.427 41.9287 23.0035C42.0073 23.5501 41.5523 24.0001 41 24.0001L35.1 24.0001C35.0448 24.0001 35 23.9553 35 23.9001V18.0001Z" stroke="#0123D7" stroke-width="2"/>
</svg>
