        <svg width="380" height="380" viewBox="0 0 380 380" fill="none" xmlns="http://www.w3.org/2000/svg">
<path style="mix-blend-mode:multiply" d="M183.979 333.762C261.179 333.762 323.761 271.179 323.761 193.98C323.761 116.781 261.179 54.1982 183.979 54.1982C106.78 54.1982 44.1974 116.781 44.1974 193.98C44.1974 271.179 106.78 333.762 183.979 333.762Z" fill="url(#paint0_radial_132_89)"/>
<path d="M173.882 314.862C246.22 314.862 304.861 256.221 304.861 183.883C304.861 111.544 246.22 52.9028 173.882 52.9028C101.544 52.9028 42.9019 111.544 42.9019 183.883C42.9019 256.221 101.544 314.862 173.882 314.862Z" fill="#F0F0F0"/>
<path d="M174.499 315.479C246.837 315.479 305.479 256.838 305.479 184.5C305.479 112.162 246.837 53.52 174.499 53.52C102.161 53.52 43.5195 112.162 43.5195 184.5C43.5195 256.838 102.161 315.479 174.499 315.479Z" fill="url(#paint1_linear_132_89)"/>
<path d="M257.25 267.25C302.952 221.548 302.952 147.452 257.25 101.75C211.549 56.0484 137.452 56.0484 91.7501 101.75C46.0485 147.452 46.0485 221.548 91.7501 267.25C137.452 312.952 211.549 312.952 257.25 267.25Z" fill="#F5F5F5"/>
<path d="M270.771 117.992C283.338 136.645 290.677 159.114 290.677 183.295C290.677 247.925 238.283 300.321 173.651 300.321C133.731 300.321 98.4992 280.32 77.3791 249.805C98.399 281.002 134.05 301.526 174.497 301.526C239.129 301.526 291.523 249.132 291.523 184.5C291.523 159.789 283.844 136.882 270.771 117.992Z" fill="#FAFAFA"/>
<g style="mix-blend-mode:multiply">
<path d="M174.637 241.136C143.442 241.136 118.063 215.757 118.063 184.563C118.063 165.172 127.825 147.348 144.174 136.883C147.762 134.588 152.529 135.634 154.824 139.219C157.118 142.805 156.072 147.574 152.487 149.869C140.586 157.485 133.482 170.456 133.482 184.563C133.482 207.256 151.944 225.718 174.637 225.718C197.329 225.718 215.791 207.256 215.791 184.563C215.791 170.439 208.673 157.462 196.752 149.848C193.164 147.556 192.113 142.789 194.403 139.201C196.696 135.61 201.465 134.56 205.05 136.852C221.429 147.313 231.21 165.148 231.21 184.563C231.21 215.757 205.831 241.136 174.637 241.136Z" fill="#858585"/>
<path d="M174.636 192.24C170.378 192.24 166.927 188.789 166.927 184.53V134.965C166.927 130.706 170.378 127.255 174.636 127.255C178.895 127.255 182.346 130.706 182.346 134.965V184.53C182.346 188.789 178.893 192.24 174.636 192.24Z" fill="#858585"/>
</g>
<g style="mix-blend-mode:color-dodge">
<path d="M175.601 242.101C144.407 242.101 119.028 216.722 119.028 185.525C119.028 166.134 128.79 148.31 145.141 137.844C148.729 135.55 153.495 136.596 155.79 140.181C158.085 143.767 157.039 148.536 153.453 150.831C141.553 158.447 134.449 171.418 134.449 185.525C134.449 208.218 152.911 226.679 175.603 226.679C198.296 226.679 216.758 208.218 216.758 185.525C216.758 171.401 209.64 158.424 197.718 150.81C194.13 148.517 193.08 143.751 195.37 140.163C197.662 136.572 202.432 135.524 206.017 137.814C222.396 148.275 232.177 166.11 232.177 185.525C232.177 216.719 206.798 242.101 175.603 242.101H175.601Z" fill="#0123D7"/>
<path d="M175.601 193.204C171.342 193.204 167.892 189.753 167.892 185.494V135.929C167.892 131.67 171.342 128.22 175.601 128.22C179.86 128.22 183.311 131.67 183.311 135.929V185.494C183.311 189.753 179.858 193.204 175.601 193.204Z" fill="#0123D7"/>
</g>
<defs>
<radialGradient id="paint0_radial_132_89" cx="0" cy="0" r="1" gradientUnits="userSpaceOnUse" gradientTransform="translate(183.979 193.98) scale(139.782)">
<stop offset="0.59" stop-color="#474747"/>
<stop offset="0.66" stop-color="#4A4A4A"/>
<stop offset="0.72" stop-color="#555555"/>
<stop offset="0.78" stop-color="#686868"/>
<stop offset="0.83" stop-color="#828282"/>
<stop offset="0.89" stop-color="#A4A4A4"/>
<stop offset="0.95" stop-color="#CDCDCD"/>
<stop offset="1" stop-color="white"/>
</radialGradient>
<linearGradient id="paint1_linear_132_89" x1="78.1038" y1="90.0335" x2="268.061" y2="276.191" gradientUnits="userSpaceOnUse">
<stop stop-color="#D6D6D6"/>
<stop offset="0.7" stop-color="#EBEBEB"/>
<stop offset="1" stop-color="#F7F7F7"/>
</linearGradient>
</defs>
</svg>